<?xml version="1.0" standalone="no"?>
<!DOCTYPE svg PUBLIC "-//W3C//DTD SVG 20010904//EN"
 "http://www.w3.org/TR/2001/REC-SVG-20010904/DTD/svg10.dtd">
<svg version="1.0" xmlns="http://www.w3.org/2000/svg"
 width="700.000000pt" height="700.000000pt" viewBox="0 0 700.000000 700.000000"
 preserveAspectRatio="xMidYMid meet">
<metadata>
Created by potrace 1.14, written by Peter Selinger 2001-2017
</metadata>
<g transform="translate(0.000000,700.000000) scale(0.100000,-0.100000)"
fill="#000000" stroke="none">
<path d="M3417 6884 c-1 -1 -56 -5 -122 -8 -66 -3 -129 -8 -140 -10 -17 -3
-118 -17 -150 -20 -12 -2 -93 -17 -120 -23 -11 -2 -31 -6 -45 -9 -63 -12 -230
-58 -323 -88 -619 -203 -1150 -579 -1600 -1135 -82 -101 -221 -309 -305 -457
-130 -228 -283 -595 -348 -834 -50 -186 -104 -462 -119 -610 -4 -36 -9 -78
-12 -95 -3 -16 -6 -151 -8 -300 -2 -273 2 -351 30 -575 4 -30 24 -157 30 -185
2 -11 9 -45 15 -75 27 -141 125 -476 171 -585 6 -16 13 -34 14 -40 2 -5 28
-68 60 -140 110 -248 232 -463 390 -685 17 -25 34 -49 37 -55 4 -7 -126 -10
-380 -10 -535 0 -495 36 -490 -428 3 -294 4 -314 23 -339 11 -14 34 -34 50
-44 28 -18 85 -18 1070 -19 1023 0 1041 0 1079 20 22 11 49 33 60 48 20 27 21
42 22 365 0 185 -3 349 -8 364 -11 30 -54 79 -95 105 -15 10 -35 23 -43 30 -8
7 -42 33 -75 60 -82 65 -278 262 -351 353 -199 247 -388 590 -468 850 -10 30
-22 64 -27 75 -17 38 -78 300 -93 405 -9 58 -19 121 -22 140 -10 60 -12 532
-3 595 4 33 11 85 15 115 3 30 10 74 15 98 5 23 12 59 15 78 16 104 51 230
111 399 47 132 53 147 134 311 240 488 640 899 1095 1127 214 107 448 186 639
213 17 3 40 7 51 9 103 22 529 23 595 1 8 -3 32 -7 54 -10 122 -15 394 -92
505 -143 229 -104 368 -188 547 -331 525 -418 873 -1053 970 -1772 19 -145 25
-520 10 -657 -12 -107 -16 -145 -22 -173 -2 -14 -7 -40 -10 -58 -23 -141 -88
-373 -147 -522 -145 -372 -340 -673 -608 -940 -105 -106 -170 -162 -322 -276
-36 -28 -57 -51 -64 -75 -6 -21 -10 -166 -9 -371 0 -325 1 -338 21 -365 12
-15 36 -37 55 -48 33 -19 53 -20 1079 -20 l1045 1 36 22 c68 41 70 58 67 407
-3 285 -5 312 -22 338 -41 60 -45 61 -461 63 -209 1 -384 2 -388 3 -4 1 16 34
45 74 159 215 319 508 430 785 69 172 152 438 183 588 9 43 19 88 21 99 2 11
6 32 9 48 3 15 8 42 11 60 9 51 12 69 19 127 3 30 8 65 10 78 20 119 27 576
12 752 -52 616 -247 1210 -565 1717 -373 595 -930 1081 -1537 1343 -27 11 -59
25 -70 31 -11 5 -65 25 -120 45 -274 97 -567 159 -855 180 -87 6 -299 12 -303
8z"/>
</g>
</svg>
